# xmcd
#
# Track frame offsets:
#	150
#	10638
#	22500
#	45675
#	57925
#	67938
#	80763
#	96263
#	111238
#	125513
#	136325
#	149513
#	161038
#	170488
#	182525
#	192963
#	205700
#	216488
#	228463
#	238163
#	251038
#	263050
#	271713
#	284225
#
# Disc length: 3964
#
# Revision: 2
# Processed by: cddbd v1.5.1PL0 Copyright (c) Steve Scherf et al.
# Submitted via: CDex 1.40Beta0
# Normalized: r1:TDELIM( - )
#
DISCID=610f7a18
DTITLE=Various Artist - Country Music Hall Of Fame
DYEAR=1900
DGENRE=Country
TTITLE0=Dave Dudley - Six days on the road
TTITLE1=Skeeter Davis - The end of the world
TTITLE2=Red Sovine - Teddy bear
TTITLE3=Jack Scott - What in the worlds come over you
TTITLE4=George Jones - Why baby why
TTITLE5=Bobby Helms - Fraulein
TTITLE6=Red Sovine - Phanton 309
TTITLE7=T. Texas Tyler - Deck of cards
TTITLE8=Bobby Helms - My special angel
TTITLE9=Jim Lowe - Four walls
TTITLE10=Kenny Rogers - Ruby, don't take your love to town
TTITLE11=Freddy Fender - Before the next teardrop falls
TTITLE12=Carl Dobkins Jr. - My heart is an open book
TTITLE13=Jack Scott - Burning bridges
TTITLE14=Ferlin Husky - Wings of a dove
TTITLE15=Del Reeves - Girl on the billboard
TTITLE16=David Houston - So many ways
TTITLE17=Hawkshaw Hawkins - Lonesome
TTITLE18=George Jones - I've got five dollars and it's saturday night
TTITLE19=Ray Peterson - Tell Laura I love her
TTITLE20=Ray Peterson - Corinna, Corinna
TTITLE21=Sandy Posey - Born a women
TTITLE22=Kenny Rogers - Reuben James
TTITLE23=Freddy Fender - Wasted days and wasted nights
EXTD=ID3G:   2
EXTT0=
EXTT1=
EXTT2=
EXTT3=
EXTT4=
EXTT5=
EXTT6=
EXTT7=
EXTT8=
EXTT9=
EXTT10=
EXTT11=
EXTT12=
EXTT13=
EXTT14=
EXTT15=
EXTT16=
EXTT17=
EXTT18=
EXTT19=
EXTT20=
EXTT21=
EXTT22=
EXTT23=
PLAYORDER=
